<?xml version="1.0" encoding="UTF-8"?>
<!-- Generated by Pixelmator Pro 4.2 -->
<svg width="5000" height="5000" viewBox="0 0 5000 5000" xmlns="http://www.w3.org/2000/svg">
    <path id="m" fill="#000000" stroke="none" d="M 3256.642822 3091.285645 L 3251.880859 3091.285645 L 3256.642822 2729.380859 L 3251.880859 2367.476074 L 3251.880859 2010.333496 L 3256.642822 1957.952148 C 3256.642822 1951.603027 3255.055664 1946.841309 3251.880859 1943.666504 C 3251.880859 1940.492188 3250.293701 1934.143066 3247.119141 1924.619141 C 3243.944336 1915.095215 3242.357178 1908.746094 3242.357178 1905.571289 L 3232.833252 1848.428711 C 3229.658691 1842.079102 3220.13501 1824.619141 3204.261963 1796.047852 C 3182.039551 1764.30127 3151.881104 1743.666504 3113.785645 1734.143066 C 3097.912598 1721.444336 3082.039795 1715.095215 3066.166748 1715.095215 C 3059.817383 1715.095215 3048.706543 1717.476074 3032.833252 1722.238281 C 3016.960205 1727 3007.436523 1729.380859 3004.261963 1729.380859 C 2962.991943 1745.253906 2937.595215 1757.952148 2928.071533 1767.476074 C 2905.849121 1789.69873 2888.388916 1811.92041 2875.69043 1834.143066 L 2861.404785 1877 C 2848.706299 1889.698242 2840.769775 1900.80957 2837.595215 1910.333496 L 2837.595215 1972.238281 C 2831.246094 2042.07959 2828.071533 2081.761719 2828.071533 2091.285645 C 2828.071533 2180.174805 2829.658691 2237.317383 2832.833252 2262.714355 L 2837.595215 2443.666748 L 2832.833252 2791.285645 L 2832.833252 3143.666748 L 2832.833252 3491.285645 L 2837.595215 3843.666748 C 2837.595215 3945.254395 2836.008057 4010.333252 2832.833252 4038.904785 L 2828.071533 4234.142578 C 2828.071533 4253.19043 2826.484131 4265.888672 2823.30957 4272.238281 C 2816.960205 4300.80957 2805.849121 4323.031738 2789.976074 4338.904785 C 2783.626953 4342.079102 2775.69043 4346.841309 2766.166504 4353.19043 C 2762.992188 4356.365234 2759.817383 4357.952148 2756.642822 4357.952148 L 2751.880859 4362.714355 C 2742.356934 4365.888672 2720.135254 4367.476074 2685.214355 4367.476074 C 2669.341309 4367.476074 2658.230225 4365.888672 2651.880859 4362.714355 C 2648.706299 4362.714355 2634.420898 4365.888672 2609.023926 4372.238281 L 2599.5 4372.238281 L 2399.5 4372.238281 L 2347.119141 4372.238281 L 2332.833496 4372.238281 L 2328.071289 4367.476074 L 2289.976074 4367.476074 L 2285.214355 4372.238281 C 2266.166504 4372.238281 2247.119141 4367.476074 2228.071289 4357.952148 C 2212.198242 4351.603027 2194.738281 4332.555664 2175.69043 4300.80957 C 2169.341309 4275.412598 2166.166504 4261.126953 2166.166504 4257.952148 C 2162.992188 4251.603027 2161.404785 4238.904785 2161.404785 4219.857422 L 2161.404785 4115.095215 L 2166.166504 3762.714355 L 2161.404785 3415.095215 L 2161.404785 3067.476074 L 2166.166504 2719.857178 L 2161.404785 2372.238037 L 2166.166504 2196.047852 C 2169.341309 2170.650879 2170.928711 2111.920898 2170.928711 2019.856934 C 2170.928711 2013.507813 2168.547607 2003.984375 2163.785645 1991.285645 C 2159.023926 1978.587402 2156.642822 1967.476074 2156.642822 1957.952148 L 2156.642822 1905.571289 L 2156.642822 1886.523926 C 2137.595215 1854.777832 2126.484131 1834.143066 2123.30957 1824.619141 C 2116.960449 1799.222168 2109.023926 1783.349121 2099.5 1777 L 2075.69043 1757.952148 C 2062.991943 1745.253906 2039.182739 1734.143066 2004.261963 1724.619141 L 1999.5 1719.856934 C 1993.150757 1719.856934 1987.595215 1719.856934 1982.833374 1719.856934 C 1978.071411 1719.856934 1972.515869 1719.856934 1966.166626 1719.856934 L 1947.119019 1724.619141 C 1934.420532 1724.619141 1913.785889 1730.968262 1885.214233 1743.666504 C 1853.46814 1762.714355 1834.420654 1775.412598 1828.071411 1781.761719 L 1804.261963 1805.571289 C 1772.515625 1846.841309 1753.468262 1881.761719 1747.119019 1910.333496 L 1751.880981 1962.714355 L 1751.880981 1972.238281 C 1745.531738 2023.032227 1742.357178 2051.603027 1742.357178 2057.952148 L 1747.119019 2396.047607 L 1742.357178 2738.904785 L 1742.357178 3077 L 1747.119019 3419.857178 L 1747.119019 3757.952393 L 1747.119019 4100.80957 L 1747.119019 4167.476074 L 1747.119019 4243.666992 C 1747.119019 4262.714355 1737.595337 4283.349121 1718.547607 4305.571289 C 1702.674561 4334.143066 1689.976318 4351.603027 1680.452393 4357.952148 C 1655.05542 4364.301758 1640.769775 4367.476074 1637.595215 4367.476074 L 1604.261963 4367.476074 C 1601.08728 4367.476074 1597.91272 4367.476074 1594.738037 4367.476074 C 1591.563477 4367.476074 1588.388916 4369.063477 1585.214355 4372.238281 L 1580.452393 4372.238281 C 1570.928467 4369.063477 1550.293823 4370.650879 1518.547607 4377 L 1509.023804 4377 C 1499.5 4377 1466.166992 4373.825195 1409.023804 4367.476074 L 1309.023804 4362.714355 C 1305.849121 4362.714355 1288.389038 4365.888672 1256.642822 4372.238281 L 1242.357178 4367.476074 L 1237.595215 4362.714355 C 1205.849121 4362.714355 1185.214355 4361.126953 1175.69043 4357.952148 C 1153.46814 4357.952148 1136.008057 4351.603516 1123.30957 4338.904785 C 1113.785645 4332.555664 1105.849243 4321.444336 1099.5 4305.571289 C 1083.626953 4267.476074 1075.69043 4246.841309 1075.69043 4243.666992 L 1080.452393 4172.238281 L 1080.452393 4157.952148 C 1074.103149 4081.761475 1070.928589 4038.904785 1070.928589 4029.380859 C 1070.928589 4013.507813 1072.515869 3991.285889 1075.69043 3962.714355 C 1078.865112 3934.142822 1080.452393 3913.508057 1080.452393 3900.80957 C 1080.452393 3811.920166 1078.865112 3754.777832 1075.69043 3729.380859 L 1070.928589 3548.428467 L 1070.928589 3191.285645 L 1070.928589 2838.904785 L 1075.69043 2486.523926 L 1075.69043 2129.380859 C 1078.865112 2113.507813 1078.865112 2081.762207 1075.69043 2034.143066 C 1072.515869 1986.523438 1070.928589 1959.539551 1070.928589 1953.19043 C 1070.928589 1946.841309 1072.515869 1937.317383 1075.69043 1924.619141 C 1078.865112 1911.92041 1080.452393 1902.396973 1080.452393 1896.047852 C 1083.626953 1889.698242 1083.626953 1882.555664 1080.452393 1874.619141 C 1077.277832 1866.682617 1075.69043 1861.126953 1075.69043 1857.952148 L 1085.214355 1819.856934 C 1088.388916 1803.983887 1093.944336 1782.555664 1101.880981 1755.571289 C 1109.817505 1728.587402 1113.785645 1713.507813 1113.785645 1710.333496 L 1118.547607 1686.523926 L 1113.785645 1662.714355 L 1142.357178 1615.095215 L 1151.880981 1572.238281 L 1161.404785 1553.19043 L 1242.357178 1429.380859 L 1299.5 1362.714355 C 1315.373047 1340.492188 1336.007813 1316.682617 1361.404785 1291.285645 L 1418.547607 1238.904785 C 1424.896851 1232.555664 1434.420654 1225.412598 1447.119019 1217.476074 C 1459.817505 1209.539551 1467.753906 1203.984375 1470.928589 1200.80957 L 1528.071411 1153.19043 C 1534.420654 1150.015625 1546.325317 1144.460449 1563.785645 1136.523926 C 1581.246094 1128.587402 1596.325317 1121.444336 1609.023804 1115.095215 L 1661.404785 1096.047852 L 1699.5 1086.523926 L 1756.642822 1077 C 1766.166748 1073.825195 1778.86499 1069.063477 1794.738037 1062.714355 C 1810.611206 1056.365234 1823.309448 1053.19043 1832.833374 1053.19043 C 1867.75415 1053.19043 1885.214233 1053.19043 1885.214233 1053.19043 L 1904.261963 1053.19043 C 1961.405029 1046.841309 1996.325317 1043.666504 2009.023804 1043.666504 L 2085.214355 1053.19043 L 2080.452393 1053.19043 L 2156.642822 1062.714355 C 2162.992188 1065.888672 2171.722168 1069.856934 2182.833496 1074.619141 C 2193.944336 1079.380859 2201.087402 1081.761719 2204.261963 1081.761719 C 2242.357422 1091.285645 2262.992188 1096.047852 2266.166504 1096.047852 L 2328.071289 1119.856934 C 2369.341309 1135.730469 2393.150879 1146.841309 2399.5 1153.19043 C 2402.674561 1156.365234 2410.611084 1163.507813 2423.30957 1174.619141 C 2436.008057 1185.72998 2445.531738 1192.873047 2451.880859 1196.047852 L 2499.5 1205.571289 C 2521.722168 1205.571289 2534.420654 1203.984375 2537.595215 1200.80957 C 2543.944336 1197.634766 2555.05542 1191.285645 2570.928711 1181.761719 C 2586.801758 1172.238281 2596.325439 1167.476074 2599.5 1167.476074 L 2694.738037 1119.856934 C 2701.087402 1119.856934 2710.611084 1116.682617 2723.30957 1110.333496 C 2736.008057 1103.983887 2747.119141 1099.222168 2756.642822 1096.047852 L 2799.5 1086.523926 C 2805.849121 1083.349121 2816.960205 1078.587402 2832.833252 1072.238281 C 2848.706543 1065.888672 2861.404785 1062.714355 2870.928467 1062.714355 L 2942.357178 1053.19043 C 2986.801758 1046.841309 3035.214111 1042.873047 3087.595215 1041.285645 C 3139.976563 1039.698242 3174.103027 1040.492188 3189.976074 1043.666504 L 3142.357178 1048.428711 L 3242.357178 1067.476074 L 3294.738037 1077 C 3320.13501 1083.349121 3348.706299 1094.460449 3380.452393 1110.333496 L 3485.214355 1157.952148 L 3528.071533 1181.761719 L 3580.452393 1219.856934 L 3609.023926 1248.428711 L 3609.023926 1253.19043 L 3675.69043 1305.571289 C 3720.135254 1353.190918 3747.118896 1386.523926 3756.642822 1405.571289 C 3766.166748 1415.095215 3778.86499 1442.079102 3794.738037 1486.523926 C 3816.960449 1515.095215 3831.246094 1537.317383 3837.595215 1553.19043 C 3847.119141 1562.714355 3856.642822 1589.698242 3866.166748 1634.143066 C 3878.865234 1665.88916 3888.388916 1696.047363 3894.738037 1724.619141 C 3907.436523 1762.714355 3913.785645 1792.873047 3913.785645 1815.095215 L 3909.023926 1862.714355 C 3909.023926 1869.063477 3911.404785 1877 3916.166748 1886.523926 C 3920.928711 1896.047852 3923.30957 1902.396973 3923.30957 1905.571289 L 3918.547607 1919.856934 L 3923.30957 1948.428711 C 3926.484131 1954.777832 3926.484131 1969.063477 3923.30957 1991.285645 L 3918.547607 2024.619141 C 3918.547607 2034.143066 3920.13501 2048.428711 3923.30957 2067.476074 C 3926.484131 2086.523926 3928.071533 2099.222168 3928.071533 2105.571289 C 3928.071533 2111.920898 3926.484131 2123.031738 3923.30957 2138.904785 C 3920.13501 2154.777832 3918.547607 2169.063477 3918.547607 2181.761719 L 3923.30957 2348.428467 C 3926.484131 2373.825439 3928.071533 2429.380615 3928.071533 2515.095215 L 3928.071533 2853.19043 L 3928.071533 3186.523926 L 3928.071533 3524.619141 C 3928.071533 3610.33374 3926.484131 3665.888672 3923.30957 3691.285645 L 3918.547607 3857.952393 L 3923.30957 4191.285645 C 3923.30957 4235.730469 3921.722168 4262.714355 3918.547607 4272.238281 C 3915.373047 4291.286133 3901.087402 4313.507813 3875.69043 4338.904785 C 3866.166504 4348.428711 3853.468262 4354.777832 3837.595215 4357.952148 C 3834.420654 4361.126953 3813.785889 4362.714355 3775.69043 4362.714355 C 3769.341309 4362.714355 3766.166748 4365.888672 3766.166748 4372.238281 L 3756.642822 4372.238281 C 3747.118896 4369.063477 3728.071533 4370.650879 3699.5 4377 C 3693.150879 4377 3689.976074 4373.825195 3689.976074 4367.476074 L 3485.214355 4367.476074 L 3437.595215 4367.476074 L 3423.30957 4372.238281 L 3418.547607 4377 C 3393.150635 4370.650879 3378.86499 4367.476074 3375.69043 4367.476074 L 3370.928467 4362.714355 C 3345.531738 4362.714355 3328.071533 4361.126953 3318.547607 4357.952148 C 3302.674561 4348.428711 3288.388916 4332.555664 3275.69043 4310.333008 C 3262.991943 4288.111328 3256.642822 4270.650879 3256.642822 4257.952148 L 3256.642822 4219.857422 C 3256.642822 4210.333008 3256.642822 4198.428711 3256.642822 4184.142578 C 3256.642822 4169.857422 3256.642822 4154.777832 3256.642822 4138.904785 C 3256.642822 4123.031738 3256.642822 4113.507813 3256.642822 4110.333008 L 3256.642822 3767.476074 L 3256.642822 3429.380859 Z"/>
    <path id="m-copy" fill="#000000" stroke="none" d="M 1742.357422 1910.206543 L 1747.119385 1910.206543 L 1742.357422 2272.111328 L 1747.119385 2634.016113 L 1747.119385 2991.158691 L 1742.357422 3043.540039 C 1742.357422 3049.88916 1743.94458 3054.650879 1747.119385 3057.825684 C 1747.119385 3061 1748.706543 3067.349121 1751.881104 3076.873047 C 1755.055908 3086.396973 1756.643066 3092.746094 1756.643066 3095.920898 L 1766.166992 3153.063477 C 1769.341553 3159.413086 1778.865234 3176.873047 1794.738281 3205.444336 C 1816.960693 3237.190918 1847.119141 3257.825684 1885.2146 3267.349121 C 1901.087646 3280.047852 1916.960449 3286.396973 1932.833496 3286.396973 C 1939.182861 3286.396973 1950.293701 3284.016113 1966.166992 3279.253906 C 1982.040039 3274.492188 1991.563721 3272.111328 1994.738281 3272.111328 C 2036.008301 3256.238281 2061.405029 3243.540039 2070.928711 3234.016113 C 2093.151123 3211.793457 2110.611328 3189.571777 2123.309814 3167.349121 L 2137.595459 3124.492188 C 2150.293945 3111.793945 2158.230469 3100.682617 2161.405029 3091.158691 L 2161.405029 3029.253906 C 2167.75415 2959.412598 2170.928711 2919.730469 2170.928711 2910.206543 C 2170.928711 2821.317383 2169.341553 2764.174805 2166.166992 2738.777832 L 2161.405029 2557.825439 L 2166.166992 2210.206543 L 2166.166992 1857.825439 L 2166.166992 1510.206543 L 2161.405029 1157.825439 C 2161.405029 1056.237793 2162.992188 991.158936 2166.166992 962.587402 L 2170.928711 767.349121 C 2170.928711 748.30127 2172.516113 735.603027 2175.690674 729.253906 C 2182.040039 700.682617 2193.151123 678.460449 2209.02417 662.587402 C 2215.373291 659.412598 2223.309814 654.650879 2232.83374 648.301758 C 2236.008057 645.126953 2239.182861 643.539551 2242.357422 643.539551 L 2247.119385 638.777832 C 2256.643311 635.603027 2278.86499 634.016113 2313.785889 634.016113 C 2329.658936 634.016113 2340.77002 635.603027 2347.119385 638.777832 C 2350.293945 638.777832 2364.579346 635.603027 2389.976318 629.253906 L 2399.500244 629.253906 L 2599.500244 629.253906 L 2651.881104 629.253906 L 2666.166748 629.253906 L 2670.928955 634.016113 L 2709.02417 634.016113 L 2713.785889 629.253906 C 2732.83374 629.253906 2751.881104 634.016113 2770.928955 643.539551 C 2786.802002 649.88916 2804.261963 668.936523 2823.309814 700.682617 C 2829.658936 726.07959 2832.83374 740.365234 2832.83374 743.539551 C 2836.008057 749.88916 2837.595459 762.587402 2837.595459 781.634766 L 2837.595459 886.396973 L 2832.83374 1238.777832 L 2837.595459 1586.396973 L 2837.595459 1934.016113 L 2832.83374 2281.63501 L 2837.595459 2629.25415 L 2832.83374 2805.444336 C 2829.658936 2830.841309 2828.071533 2889.571289 2828.071533 2981.635254 C 2828.071533 2987.984375 2830.452637 2997.507813 2835.2146 3010.206543 C 2839.976318 3022.904785 2842.357422 3034.016113 2842.357422 3043.540039 L 2842.357422 3095.920898 L 2842.357422 3114.968262 C 2861.405029 3146.714355 2872.516113 3167.349121 2875.690674 3176.873047 C 2882.039795 3202.27002 2889.976318 3218.143066 2899.500244 3224.492188 L 2923.309814 3243.540039 C 2936.008301 3256.238281 2959.817627 3267.349121 2994.738281 3276.873047 L 2999.500244 3281.635254 C 3005.849609 3281.635254 3011.405029 3281.635254 3016.166992 3281.635254 C 3020.928955 3281.635254 3026.484375 3281.635254 3032.83374 3281.635254 L 3051.881348 3276.873047 C 3064.579834 3276.873047 3085.214355 3270.523926 3113.786133 3257.825684 C 3145.532227 3238.777832 3164.57959 3226.07959 3170.928955 3219.730469 L 3194.738281 3195.920898 C 3226.484619 3154.650879 3245.531982 3119.730469 3251.881348 3091.158691 L 3247.119385 3038.777832 L 3247.119385 3029.253906 C 3253.468506 2978.459961 3256.643066 2949.88916 3256.643066 2943.540039 L 3251.881348 2605.44458 L 3256.643066 2262.587402 L 3256.643066 1924.492188 L 3251.881348 1581.63501 L 3251.881348 1243.539795 L 3251.881348 900.682617 L 3251.881348 834.016113 L 3251.881348 757.825195 C 3251.881348 738.777832 3261.405029 718.143066 3280.452637 695.92041 C 3296.325684 667.349121 3309.023926 649.88916 3318.547852 643.539551 C 3343.944824 637.19043 3358.230469 634.016113 3361.405029 634.016113 L 3394.738281 634.016113 C 3397.913086 634.016113 3401.087646 634.016113 3404.262207 634.016113 C 3407.436768 634.016113 3410.611328 632.428711 3413.785889 629.253906 L 3418.547852 629.253906 C 3428.071777 632.428711 3448.706543 630.841309 3480.452637 624.492188 L 3489.976563 624.492188 C 3499.500244 624.492188 3532.833252 627.666504 3589.976563 634.016113 L 3689.976563 638.777832 C 3693.151123 638.777832 3710.611328 635.603027 3742.357422 629.253906 L 3756.643066 634.016113 L 3761.405029 638.777832 C 3793.151123 638.777832 3813.785889 640.365234 3823.309814 643.539551 C 3845.532227 643.539551 3862.992188 649.888672 3875.690674 662.587402 C 3885.2146 668.936523 3893.151123 680.047363 3899.500244 695.92041 C 3915.373291 734.016113 3923.309814 754.650879 3923.309814 757.825195 L 3918.547852 829.253906 L 3918.547852 843.539551 C 3924.897217 919.730713 3928.071777 962.587402 3928.071777 972.111328 C 3928.071777 987.984375 3926.484375 1010.206299 3923.309814 1038.777832 C 3920.135254 1067.349365 3918.547852 1087.984131 3918.547852 1100.682617 C 3918.547852 1189.572021 3920.135254 1246.714355 3923.309814 1272.111328 L 3928.071777 1453.063721 L 3928.071777 1810.206543 L 3928.071777 2162.587402 L 3923.309814 2514.968262 L 3923.309814 2872.111328 C 3920.135254 2887.984375 3920.135254 2919.72998 3923.309814 2967.349121 C 3926.484375 3014.96875 3928.071777 3041.952637 3928.071777 3048.301758 C 3928.071777 3054.650879 3926.484375 3064.174805 3923.309814 3076.873047 C 3920.135254 3089.571777 3918.547852 3099.095215 3918.547852 3105.444336 C 3915.373291 3111.793945 3915.373291 3118.936523 3918.547852 3126.873047 C 3921.722412 3134.80957 3923.309814 3140.365234 3923.309814 3143.540039 L 3913.785889 3181.635254 C 3910.611328 3197.508301 3905.055908 3218.936523 3897.119385 3245.920898 C 3889.182861 3272.904785 3885.2146 3287.984375 3885.2146 3291.158691 L 3880.452637 3314.968262 L 3885.2146 3338.777832 L 3856.643066 3386.396973 L 3847.119385 3429.253906 L 3837.595459 3448.301758 L 3756.643066 3572.111328 L 3699.500244 3638.777832 C 3683.627197 3661 3662.992432 3684.80957 3637.595459 3710.206543 L 3580.452637 3762.587402 C 3574.103516 3768.936523 3564.57959 3776.07959 3551.881348 3784.016113 C 3539.182861 3791.952637 3531.246338 3797.507813 3528.071777 3800.682617 L 3470.928955 3848.301758 C 3464.57959 3851.476563 3452.675049 3857.031738 3435.2146 3864.968262 C 3417.75415 3872.904785 3402.675049 3880.047852 3389.976563 3886.396973 L 3337.595459 3905.444336 L 3299.500244 3914.968262 L 3242.357422 3924.492188 C 3232.833496 3927.666992 3220.135254 3932.428711 3204.262207 3938.777832 C 3188.38916 3945.126953 3175.690918 3948.301758 3166.166992 3948.301758 C 3131.246094 3948.301758 3113.786133 3948.301758 3113.786133 3948.301758 L 3094.738281 3948.301758 C 3037.595215 3954.650879 3002.675049 3957.825684 2989.976563 3957.825684 L 2913.785889 3948.301758 L 2918.547852 3948.301758 L 2842.357422 3938.777832 C 2836.008057 3935.603516 2827.278076 3931.635254 2816.166748 3926.873047 C 2805.055908 3922.111328 2797.912842 3919.730469 2794.738281 3919.730469 C 2756.642822 3910.206543 2736.008057 3905.444336 2732.83374 3905.444336 L 2670.928955 3881.635254 C 2629.658936 3865.761719 2605.849365 3854.650879 2599.500244 3848.301758 C 2596.325684 3845.126953 2588.38916 3837.984375 2575.690674 3826.873047 C 2562.992188 3815.762207 2553.468506 3808.619141 2547.119385 3805.444336 L 2499.500244 3795.920898 C 2477.278076 3795.920898 2464.57959 3797.507813 2461.405029 3800.682617 C 2455.055908 3803.857422 2443.944824 3810.206543 2428.071533 3819.730469 C 2412.198486 3829.253906 2402.674805 3834.016113 2399.500244 3834.016113 L 2304.262207 3881.635254 C 2297.912842 3881.635254 2288.38916 3884.80957 2275.690674 3891.158691 C 2262.992188 3897.508301 2251.881104 3902.27002 2242.357422 3905.444336 L 2199.500244 3914.968262 C 2193.151123 3918.143066 2182.040039 3922.904785 2166.166992 3929.253906 C 2150.293701 3935.603516 2137.595459 3938.777832 2128.071777 3938.777832 L 2056.643066 3948.301758 C 2012.198486 3954.650879 1963.786133 3958.619141 1911.405029 3960.206543 C 1859.023682 3961.793945 1824.897217 3961 1809.02417 3957.825684 L 1856.643066 3953.063477 L 1756.643066 3934.016113 L 1704.262207 3924.492188 C 1678.865234 3918.143066 1650.293945 3907.031738 1618.547852 3891.158691 L 1513.785889 3843.540039 L 1470.928711 3819.730469 L 1418.547852 3781.635254 L 1389.976318 3753.063477 L 1389.976318 3748.301758 L 1323.309814 3695.920898 C 1278.86499 3648.30127 1251.881348 3614.968262 1242.357422 3595.920898 C 1232.833496 3586.396973 1220.135254 3559.413086 1204.262207 3514.968262 C 1182.039795 3486.396973 1167.75415 3464.174805 1161.405029 3448.301758 C 1151.881104 3438.777832 1142.357422 3411.793945 1132.833496 3367.349121 C 1120.13501 3335.603027 1110.611328 3305.444824 1104.262207 3276.873047 C 1091.563721 3238.777832 1085.2146 3208.619141 1085.2146 3186.396973 L 1089.976318 3138.777832 C 1089.976318 3132.428711 1087.595459 3124.492188 1082.833496 3114.968262 C 1078.071533 3105.444336 1075.690674 3099.095215 1075.690674 3095.920898 L 1080.452637 3081.635254 L 1075.690674 3053.063477 C 1072.516113 3046.714355 1072.516113 3032.428711 1075.690674 3010.206543 L 1080.452637 2976.873047 C 1080.452637 2967.349121 1078.865234 2953.063477 1075.690674 2934.016113 C 1072.516113 2914.968262 1070.928711 2902.27002 1070.928711 2895.920898 C 1070.928711 2889.571289 1072.516113 2878.460449 1075.690674 2862.587402 C 1078.865234 2846.714355 1080.452637 2832.428711 1080.452637 2819.730469 L 1075.690674 2653.063721 C 1072.516113 2627.666748 1070.928711 2572.111572 1070.928711 2486.396973 L 1070.928711 2148.301758 L 1070.928711 1814.968262 L 1070.928711 1476.873047 C 1070.928711 1391.158447 1072.516113 1335.603516 1075.690674 1310.206543 L 1080.452637 1143.539795 L 1075.690674 810.206543 C 1075.690674 765.761719 1077.278076 738.777832 1080.452637 729.253906 C 1083.627197 710.206055 1097.912842 687.984375 1123.309814 662.587402 C 1132.83374 653.063477 1145.531982 646.714355 1161.405029 643.539551 C 1164.57959 640.365234 1185.214355 638.777832 1223.309814 638.777832 C 1229.658936 638.777832 1232.833496 635.603027 1232.833496 629.253906 L 1242.357422 629.253906 C 1251.881348 632.428711 1270.928711 630.841309 1299.500244 624.492188 C 1305.849365 624.492188 1309.02417 627.666504 1309.02417 634.016113 L 1513.785889 634.016113 L 1561.405029 634.016113 L 1575.690674 629.253906 L 1580.452637 624.492188 C 1605.849609 630.841309 1620.135254 634.016113 1623.309814 634.016113 L 1628.071777 638.777832 C 1653.468506 638.777832 1670.928711 640.365234 1680.452637 643.539551 C 1696.325684 653.063477 1710.611328 668.936523 1723.309814 691.158691 C 1736.008301 713.380859 1742.357422 730.841309 1742.357422 743.539551 L 1742.357422 781.634766 C 1742.357422 791.158691 1742.357422 803.063477 1742.357422 817.349121 C 1742.357422 831.634766 1742.357422 846.714355 1742.357422 862.587402 C 1742.357422 878.460449 1742.357422 887.983887 1742.357422 891.158691 L 1742.357422 1234.016113 L 1742.357422 1572.111328 Z"/>
</svg>
